<?xml version="1.0" encoding="utf-8"?>
<!-- Generator: Adobe Illustrator 14.0.0, SVG Export Plug-In  -->
<!DOCTYPE svg PUBLIC "-//W3C//DTD SVG 1.1//EN" "http://www.w3.org/Graphics/SVG/1.1/DTD/svg11.dtd" [
	<!ENTITY ns_flows "http://ns.adobe.com/Flows/1.0/">
]>
<svg version="1.1"
	 xmlns="http://www.w3.org/2000/svg" xmlns:xlink="http://www.w3.org/1999/xlink" xmlns:a="http://ns.adobe.com/AdobeSVGViewerExtensions/3.0/"
	 x="0px" y="0px" width="1023px" height="461px" viewBox="-0.7666016 -0.2036133 1023 461"
	 enable-background="new -0.7666016 -0.2036133 1023 461" xml:space="preserve">
<defs>
</defs>
<path opacity="0.06" fill="#231F20" enable-background="new    " d="M919.2792969,459.543457H102.5087891
	C46.1972656,459.543457,0.5,413.8442383,0.5,357.534668V102.5087891C0.5,46.1958008,46.1972656,0.5,102.5087891,0.5H919.046875
	c56.3154297,0,102.0087891,45.6958008,102.0087891,102.0087891V357.534668
	C1021.0556641,413.8442383,975.3623047,459.543457,919.2792969,459.543457z"/>
<path fill="none" stroke="#FF0000" stroke-miterlimit="10" d="M556.7050781,459.543457
	c0-25.3896484-20.5390625-45.6992188-45.6943359-45.6992188c-25.3876953,0-45.6967773,20.5429688-45.6967773,45.6992188"/>
<path opacity="0.12" fill="#0600FF" enable-background="new    " d="M993.8232422,250.2133789h-20.3085938
	c-5.7695312,0-10.6181641-4.6152344-10.6181641-10.6152344v-22.15625c0-5.7695312,4.6181641-10.6162109,10.6181641-10.6162109
	h20.3085938"/>
<path opacity="0.12" fill="#0600FF" enable-background="new    " d="M27.9638672,209.8256836h20.3100586
	c5.7705078,0,10.6152344,4.6162109,10.6152344,10.6152344v22.3896484c0,5.7685547-4.6142578,10.6152344-10.6152344,10.6152344
	H27.9638672"/>
<path opacity="0.12" fill="#0600FF" enable-background="new    " d="M27.9638672,209.8256836h20.3100586
	c5.7705078,0,10.6152344,4.6162109,10.6152344,10.6152344v22.3896484c0,5.7685547-4.6142578,10.6152344-10.6152344,10.6152344
	H27.9638672"/>
<path fill="none" stroke="#0600FF" stroke-miterlimit="10" d="M510.7773438,147.9760742
	c45.3789062,0,82.1630859,36.78125,82.1630859,82.1601562c0,45.3769531-36.7841797,82.1591797-82.1630859,82.1591797
	c-45.3745117,0-82.1591797-36.7822266-82.1591797-82.1591797
	C428.6181641,184.7573242,465.402832,147.9760742,510.7773438,147.9760742z"/>
<circle fill="none" stroke="#FF0000" stroke-miterlimit="10" cx="136.8974609" cy="111.5090332" r="80.3156738"/>
<polyline fill="none" stroke="#FF0000" stroke-miterlimit="10" points="121.6650391,91.4291992 121.6650391,107.3564453 
	100.6621094,107.3564453 "/>
<polyline fill="none" stroke="#FF0000" stroke-miterlimit="10" points="151.8994141,91.4291992 151.8994141,107.3564453 
	172.8999023,107.3564453 "/>
<polyline fill="none" stroke="#FF0000" stroke-miterlimit="10" points="121.6650391,91.4291992 121.6650391,107.3564453 
	100.6621094,107.3564453 "/>
<polyline fill="none" stroke="#FF0000" stroke-miterlimit="10" points="151.8994141,91.4291992 151.8994141,107.3564453 
	172.8999023,107.3564453 "/>
<polyline fill="none" stroke="#FF0000" stroke-miterlimit="10" points="151.8994141,131.5878906 151.8994141,115.6645508 
	172.8999023,115.6645508 "/>
<polyline fill="none" stroke="#FF0000" stroke-miterlimit="10" points="121.6650391,131.5878906 121.6650391,115.6645508 
	100.6621094,115.6645508 "/>
<line fill="none" stroke="#FF0000" stroke-miterlimit="10" x1="121.6650391" y1="20.5771484" x2="121.6650391" y2="32.3466797"/>
<line fill="none" stroke="#FF0000" stroke-miterlimit="10" x1="151.8994141" y1="20.5771484" x2="151.8994141" y2="32.3466797"/>
<line fill="none" stroke="#FF0000" stroke-miterlimit="10" x1="121.6650391" y1="20.5771484" x2="121.6650391" y2="32.3466797"/>
<line fill="none" stroke="#FF0000" stroke-miterlimit="10" x1="151.8994141" y1="20.5771484" x2="151.8994141" y2="32.3466797"/>
<line fill="none" stroke="#FF0000" stroke-miterlimit="10" x1="121.6650391" y1="190.6704102" x2="121.6650391" y2="202.4399414"/>
<line fill="none" stroke="#FF0000" stroke-miterlimit="10" x1="151.8994141" y1="190.6704102" x2="151.8994141" y2="202.4399414"/>
<line fill="none" stroke="#FF0000" stroke-miterlimit="10" x1="121.6650391" y1="190.6704102" x2="121.6650391" y2="202.4399414"/>
<line fill="none" stroke="#FF0000" stroke-miterlimit="10" x1="151.8994141" y1="190.6704102" x2="151.8994141" y2="202.4399414"/>
<circle fill="#FF0000" cx="136.8974609" cy="111.510498" r="5.3078613"/>
<circle fill="none" stroke="#FF0000" stroke-miterlimit="10" cx="136.8974609" cy="348.7636719" r="80.3149414"/>
<polyline fill="none" stroke="#FF0000" stroke-miterlimit="10" points="121.6650391,328.684082 121.6650391,344.6069336 
	100.6621094,344.6069336 "/>
<polyline fill="none" stroke="#FF0000" stroke-miterlimit="10" points="151.8994141,328.684082 151.8994141,344.6069336 
	172.8999023,344.6069336 "/>
<polyline fill="none" stroke="#FF0000" stroke-miterlimit="10" points="121.6650391,328.684082 121.6650391,344.6069336 
	100.6621094,344.6069336 "/>
<polyline fill="none" stroke="#FF0000" stroke-miterlimit="10" points="151.8994141,328.684082 151.8994141,344.6069336 
	172.8999023,344.6069336 "/>
<polyline fill="none" stroke="#FF0000" stroke-miterlimit="10" points="151.8994141,368.8422852 151.8994141,352.9155273 
	172.8999023,352.9155273 "/>
<polyline fill="none" stroke="#FF0000" stroke-miterlimit="10" points="121.6650391,368.8422852 121.6650391,352.9155273 
	100.6621094,352.9155273 "/>
<line fill="none" stroke="#FF0000" stroke-miterlimit="10" x1="121.6650391" y1="257.8325195" x2="121.6650391" y2="269.3696289"/>
<line fill="none" stroke="#FF0000" stroke-miterlimit="10" x1="151.8994141" y1="257.8325195" x2="151.8994141" y2="269.3696289"/>
<line fill="none" stroke="#FF0000" stroke-miterlimit="10" x1="121.6650391" y1="257.8325195" x2="121.6650391" y2="269.3696289"/>
<line fill="none" stroke="#FF0000" stroke-miterlimit="10" x1="151.8994141" y1="257.8325195" x2="151.8994141" y2="269.3696289"/>
<line fill="none" stroke="#FF0000" stroke-miterlimit="10" x1="121.6650391" y1="427.925293" x2="121.6650391" y2="439.6948242"/>
<line fill="none" stroke="#FF0000" stroke-miterlimit="10" x1="151.8994141" y1="427.925293" x2="151.8994141" y2="439.6948242"/>
<line fill="none" stroke="#FF0000" stroke-miterlimit="10" x1="121.6650391" y1="427.925293" x2="121.6650391" y2="439.6948242"/>
<line fill="none" stroke="#FF0000" stroke-miterlimit="10" x1="151.8994141" y1="427.925293" x2="151.8994141" y2="439.6948242"/>
<circle fill="#FF0000" cx="136.8974609" cy="348.7612305" r="5.3076172"/>
<circle fill="none" stroke="#FF0000" stroke-miterlimit="10" cx="136.8974609" cy="111.5090332" r="80.3156738"/>
<polyline fill="none" stroke="#FF0000" stroke-miterlimit="10" points="121.6650391,91.4291992 121.6650391,107.3564453 
	100.6621094,107.3564453 "/>
<polyline fill="none" stroke="#FF0000" stroke-miterlimit="10" points="151.8994141,91.4291992 151.8994141,107.3564453 
	172.8999023,107.3564453 "/>
<polyline fill="none" stroke="#FF0000" stroke-miterlimit="10" points="121.6650391,91.4291992 121.6650391,107.3564453 
	100.6621094,107.3564453 "/>
<polyline fill="none" stroke="#FF0000" stroke-miterlimit="10" points="151.8994141,91.4291992 151.8994141,107.3564453 
	172.8999023,107.3564453 "/>
<polyline fill="none" stroke="#FF0000" stroke-miterlimit="10" points="151.8994141,131.5878906 151.8994141,115.6645508 
	172.8999023,115.6645508 "/>
<polyline fill="none" stroke="#FF0000" stroke-miterlimit="10" points="121.6650391,131.5878906 121.6650391,115.6645508 
	100.6621094,115.6645508 "/>
<line fill="none" stroke="#FF0000" stroke-miterlimit="10" x1="121.6650391" y1="20.5771484" x2="121.6650391" y2="32.3466797"/>
<line fill="none" stroke="#FF0000" stroke-miterlimit="10" x1="151.8994141" y1="20.5771484" x2="151.8994141" y2="32.3466797"/>
<line fill="none" stroke="#FF0000" stroke-miterlimit="10" x1="121.6650391" y1="20.5771484" x2="121.6650391" y2="32.3466797"/>
<line fill="none" stroke="#FF0000" stroke-miterlimit="10" x1="151.8994141" y1="20.5771484" x2="151.8994141" y2="32.3466797"/>
<line fill="none" stroke="#FF0000" stroke-miterlimit="10" x1="121.6650391" y1="190.6704102" x2="121.6650391" y2="202.4399414"/>
<line fill="none" stroke="#FF0000" stroke-miterlimit="10" x1="151.8994141" y1="190.6704102" x2="151.8994141" y2="202.4399414"/>
<line fill="none" stroke="#FF0000" stroke-miterlimit="10" x1="121.6650391" y1="190.6704102" x2="121.6650391" y2="202.4399414"/>
<line fill="none" stroke="#FF0000" stroke-miterlimit="10" x1="151.8994141" y1="190.6704102" x2="151.8994141" y2="202.4399414"/>
<circle fill="#FF0000" cx="136.8974609" cy="111.510498" r="5.3078613"/>
<circle fill="none" stroke="#FF0000" stroke-miterlimit="10" cx="136.8974609" cy="348.7636719" r="80.3149414"/>
<polyline fill="none" stroke="#FF0000" stroke-miterlimit="10" points="121.6650391,328.684082 121.6650391,344.6069336 
	100.6621094,344.6069336 "/>
<polyline fill="none" stroke="#FF0000" stroke-miterlimit="10" points="151.8994141,328.684082 151.8994141,344.6069336 
	172.8999023,344.6069336 "/>
<polyline fill="none" stroke="#FF0000" stroke-miterlimit="10" points="121.6650391,328.684082 121.6650391,344.6069336 
	100.6621094,344.6069336 "/>
<polyline fill="none" stroke="#FF0000" stroke-miterlimit="10" points="151.8994141,328.684082 151.8994141,344.6069336 
	172.8999023,344.6069336 "/>
<polyline fill="none" stroke="#FF0000" stroke-miterlimit="10" points="151.8994141,368.8422852 151.8994141,352.9155273 
	172.8999023,352.9155273 "/>
<polyline fill="none" stroke="#FF0000" stroke-miterlimit="10" points="121.6650391,368.8422852 121.6650391,352.9155273 
	100.6621094,352.9155273 "/>
<line fill="none" stroke="#FF0000" stroke-miterlimit="10" x1="121.6650391" y1="257.8325195" x2="121.6650391" y2="269.3696289"/>
<line fill="none" stroke="#FF0000" stroke-miterlimit="10" x1="151.8994141" y1="257.8325195" x2="151.8994141" y2="269.3696289"/>
<line fill="none" stroke="#FF0000" stroke-miterlimit="10" x1="121.6650391" y1="257.8325195" x2="121.6650391" y2="269.3696289"/>
<line fill="none" stroke="#FF0000" stroke-miterlimit="10" x1="151.8994141" y1="257.8325195" x2="151.8994141" y2="269.3696289"/>
<line fill="none" stroke="#FF0000" stroke-miterlimit="10" x1="121.6650391" y1="427.925293" x2="121.6650391" y2="439.6948242"/>
<line fill="none" stroke="#FF0000" stroke-miterlimit="10" x1="151.8994141" y1="427.925293" x2="151.8994141" y2="439.6948242"/>
<line fill="none" stroke="#FF0000" stroke-miterlimit="10" x1="121.6650391" y1="427.925293" x2="121.6650391" y2="439.6948242"/>
<line fill="none" stroke="#FF0000" stroke-miterlimit="10" x1="151.8994141" y1="427.925293" x2="151.8994141" y2="439.6948242"/>
<circle fill="#FF0000" cx="136.8974609" cy="348.7612305" r="5.3076172"/>
<circle fill="none" stroke="#FF0000" stroke-miterlimit="10" cx="884.8916016" cy="111.5090332" r="80.3156738"/>
<polyline fill="none" stroke="#FF0000" stroke-miterlimit="10" points="869.8896484,91.4291992 869.8896484,107.3564453 
	848.8857422,107.3564453 "/>
<polyline fill="none" stroke="#FF0000" stroke-miterlimit="10" points="899.8916016,91.4291992 899.8916016,107.3564453 
	921.125,107.3564453 "/>
<polyline fill="none" stroke="#FF0000" stroke-miterlimit="10" points="869.8896484,91.4291992 869.8896484,107.3564453 
	848.8857422,107.3564453 "/>
<polyline fill="none" stroke="#FF0000" stroke-miterlimit="10" points="899.8916016,91.4291992 899.8916016,107.3564453 
	921.125,107.3564453 "/>
<polyline fill="none" stroke="#FF0000" stroke-miterlimit="10" points="899.8916016,131.5878906 899.8916016,115.6645508 
	921.125,115.6645508 "/>
<polyline fill="none" stroke="#FF0000" stroke-miterlimit="10" points="869.8896484,131.5878906 869.8896484,115.6645508 
	848.8857422,115.6645508 "/>
<line fill="none" stroke="#FF0000" stroke-miterlimit="10" x1="869.8896484" y1="20.5771484" x2="869.8896484" y2="32.3466797"/>
<line fill="none" stroke="#FF0000" stroke-miterlimit="10" x1="899.8916016" y1="20.5771484" x2="899.8916016" y2="32.3466797"/>
<line fill="none" stroke="#FF0000" stroke-miterlimit="10" x1="869.8896484" y1="20.5771484" x2="869.8896484" y2="32.3466797"/>
<line fill="none" stroke="#FF0000" stroke-miterlimit="10" x1="899.8916016" y1="20.5771484" x2="899.8916016" y2="32.3466797"/>
<line fill="none" stroke="#FF0000" stroke-miterlimit="10" x1="869.8896484" y1="190.6704102" x2="869.8896484" y2="202.4399414"/>
<line fill="none" stroke="#FF0000" stroke-miterlimit="10" x1="899.8916016" y1="190.6704102" x2="899.8916016" y2="202.4399414"/>
<line fill="none" stroke="#FF0000" stroke-miterlimit="10" x1="869.8896484" y1="190.6704102" x2="869.8896484" y2="202.4399414"/>
<line fill="none" stroke="#FF0000" stroke-miterlimit="10" x1="899.8916016" y1="190.6704102" x2="899.8916016" y2="202.4399414"/>
<circle fill="#FF0000" cx="884.8916016" cy="111.510498" r="5.3078613"/>
<circle fill="none" stroke="#FF0000" stroke-miterlimit="10" cx="884.8916016" cy="348.7636719" r="80.3149414"/>
<polyline fill="none" stroke="#FF0000" stroke-miterlimit="10" points="869.8896484,328.684082 869.8896484,344.6069336 
	848.8857422,344.6069336 "/>
<polyline fill="none" stroke="#FF0000" stroke-miterlimit="10" points="899.8916016,328.684082 899.8916016,344.6069336 
	921.125,344.6069336 "/>
<polyline fill="none" stroke="#FF0000" stroke-miterlimit="10" points="869.8896484,328.684082 869.8896484,344.6069336 
	848.8857422,344.6069336 "/>
<polyline fill="none" stroke="#FF0000" stroke-miterlimit="10" points="899.8916016,328.684082 899.8916016,344.6069336 
	921.125,344.6069336 "/>
<polyline fill="none" stroke="#FF0000" stroke-miterlimit="10" points="899.8916016,368.8422852 899.8916016,352.9155273 
	921.125,352.9155273 "/>
<polyline fill="none" stroke="#FF0000" stroke-miterlimit="10" points="869.8896484,368.8422852 869.8896484,352.9155273 
	848.8857422,352.9155273 "/>
<line fill="none" stroke="#FF0000" stroke-miterlimit="10" x1="869.8896484" y1="257.8325195" x2="869.8896484" y2="269.3696289"/>
<line fill="none" stroke="#FF0000" stroke-miterlimit="10" x1="899.8916016" y1="257.8325195" x2="899.8916016" y2="269.3696289"/>
<line fill="none" stroke="#FF0000" stroke-miterlimit="10" x1="869.8896484" y1="257.8325195" x2="869.8896484" y2="269.3696289"/>
<line fill="none" stroke="#FF0000" stroke-miterlimit="10" x1="899.8916016" y1="257.8325195" x2="899.8916016" y2="269.3696289"/>
<line fill="none" stroke="#FF0000" stroke-miterlimit="10" x1="869.8896484" y1="427.925293" x2="869.8896484" y2="439.6948242"/>
<line fill="none" stroke="#FF0000" stroke-miterlimit="10" x1="899.8916016" y1="427.925293" x2="899.8916016" y2="439.6948242"/>
<line fill="none" stroke="#FF0000" stroke-miterlimit="10" x1="869.8896484" y1="427.925293" x2="869.8896484" y2="439.6948242"/>
<line fill="none" stroke="#FF0000" stroke-miterlimit="10" x1="899.8916016" y1="427.925293" x2="899.8916016" y2="439.6948242"/>
<circle fill="#FF0000" cx="884.8916016" cy="348.7612305" r="5.3076172"/>
<line fill="none" stroke="#FF0000" stroke-miterlimit="10" x1="510.7773438" y1="0.7285156" x2="510.7773438" y2="220.902832"/>
<line fill="none" stroke="#FF0000" stroke-miterlimit="10" x1="510.7773438" y1="239.137207" x2="510.7773438" y2="459.543457"/>
<line fill="none" stroke="#0600FF" stroke-miterlimit="10" x1="652.7167969" y1="0.7285156" x2="652.7167969" y2="459.543457"/>
<line fill="none" stroke="#0600FF" stroke-miterlimit="10" x1="369.0732422" y1="0.7285156" x2="369.0732422" y2="459.543457"/>
<line fill="none" stroke="#FF0000" stroke-miterlimit="10" x1="994.0566406" y1="425.6137695" x2="994.0566406" y2="34.6538086"/>
<line fill="none" stroke="#FF0000" stroke-miterlimit="10" x1="1021.2880859" y1="295.6791992" x2="994.0566406" y2="285.2963867"/>
<line fill="none" stroke="#FF0000" stroke-miterlimit="10" x1="1021.2880859" y1="164.3598633" x2="994.0566406" y2="174.746582"/>
<path fill="none" stroke="#FF0000" stroke-miterlimit="10" d="M994.0566406,212.1333008h14.3085938
	c2.5371094,0,4.6142578,2.0800781,4.6142578,4.6152344v23.5429688c0,2.5390625-2.0771484,4.6142578-4.6142578,4.6142578h-14.3085938
	"/>
<path fill="none" stroke="#FF0000" stroke-miterlimit="10" d="M993.8232422,250.2133789h-20.3085938
	c-5.7695312,0-10.6181641-4.6152344-10.6181641-10.6152344v-22.15625c0-5.7695312,4.6181641-10.6162109,10.6181641-10.6162109
	h20.3085938"/>
<line fill="none" stroke="#FF0000" stroke-miterlimit="10" x1="0.5" y1="164.5917969" x2="27.7338867" y2="174.9750977"/>
<line fill="none" stroke="#FF0000" stroke-miterlimit="10" x1="0.5" y1="295.6791992" x2="27.7338867" y2="285.2963867"/>
<path fill="none" stroke="#FF0000" stroke-miterlimit="10" d="M27.7338867,248.1381836h-14.309082
	c-2.5400391,0-4.6166992-2.0800781-4.6166992-4.6191406v-23.7705078c0-2.5351562,2.0766602-4.6142578,4.6166992-4.6142578h14.309082
	"/>
<path fill="none" stroke="#FF0000" stroke-miterlimit="10" d="M27.9638672,209.8256836h20.3100586
	c5.7705078,0,10.6152344,4.6162109,10.6152344,10.6152344v22.3896484c0,5.7685547-4.6142578,10.6152344-10.6152344,10.6152344
	H27.9638672"/>
<line fill="none" stroke="#FF0000" stroke-miterlimit="10" x1="27.7338867" y1="32.5786133" x2="27.7338867" y2="427.4604492"/>
<line fill="none" stroke="#FF0000" stroke-miterlimit="10" x1="0.5" y1="164.3598633" x2="27.7338867" y2="174.746582"/>
<line fill="none" stroke="#FF0000" stroke-miterlimit="10" x1="0.5" y1="295.6791992" x2="27.7338867" y2="285.2963867"/>
<path fill="none" stroke="#FF0000" stroke-miterlimit="10" d="M27.7338867,247.9057617h-14.309082
	c-2.5400391,0-4.6166992-2.0742188-4.6166992-4.6152344v-23.5419922c0-2.5351562,2.0766602-4.6142578,4.6166992-4.6142578h14.309082
	"/>
<path fill="none" stroke="#FF0000" stroke-miterlimit="10" d="M27.9638672,209.8256836h20.3100586
	c5.7705078,0,10.6152344,4.6162109,10.6152344,10.6152344v22.3896484c0,5.7685547-4.6142578,10.6152344-10.6152344,10.6152344
	H27.9638672"/>
<path fill="none" stroke="#BCBCBC" stroke-miterlimit="10" d="M919.2792969,459.543457H102.5087891
	C46.1972656,459.543457,0.5,413.8442383,0.5,357.534668V102.5087891C0.5,46.1958008,46.1972656,0.5,102.5087891,0.5H919.046875
	c56.3154297,0,102.0087891,45.6958008,102.0087891,102.0087891V357.534668
	C1021.0556641,413.8442383,975.3623047,459.543457,919.2792969,459.543457z"/>
<circle fill="#0600FF" cx="510.7773438" cy="230.1357422" r="5.3071289"/>
</svg>
